<svg xmlns="http://www.w3.org/2000/svg" xmlns:xlink="http://www.w3.org/1999/xlink" width="46.904" height="55" viewBox="0 0 46.904 55">
  <defs>
    <linearGradient id="linear-gradient" y1="0.5" x2="1" y2="0.5" gradientUnits="objectBoundingBox">
      <stop offset="0" stop-color="#03eaae"/>
      <stop offset="1" stop-color="#575bf8"/>
    </linearGradient>
  </defs>
  <path id="Union_30" data-name="Union 30" d="M8552.325-11587.72a34.007,34.007,0,0,1-10.325-24.847v-11.82a1.154,1.154,0,0,1,.85-1.115,88.941,88.941,0,0,0,22.015-9.339,1.164,1.164,0,0,1,1.177,0,91.421,91.421,0,0,0,22.011,9.339,1.153,1.153,0,0,1,.853,1.115v11.82a34,34,0,0,1-10.328,24.847c-5.072,4.973-10.979,7.72-13.125,7.72S8557.4-11582.747,8552.325-11587.72Zm-8.013-35.788v10.941a31.746,31.746,0,0,0,9.634,23.2c4.987,4.886,10.319,7.055,11.5,7.055s6.52-2.169,11.508-7.055a31.756,31.756,0,0,0,9.63-23.2v-10.944a93.9,93.9,0,0,1-21.138-8.991A91.191,91.191,0,0,1,8544.313-11623.508Zm23.5,36.689a1.159,1.159,0,0,1,.423-1.582l.064-.038a1.156,1.156,0,0,1,1.583.412,1.158,1.158,0,0,1-.412,1.585l-.076.044a1.158,1.158,0,0,1-.578.155A1.157,1.157,0,0,1,8567.816-11586.818Zm2.958-1.812a1.158,1.158,0,0,1,.219-1.624,29.368,29.368,0,0,0,3.317-2.952,28.088,28.088,0,0,0,3.325-4.152,1.157,1.157,0,0,1,1.6-.336,1.16,1.16,0,0,1,.336,1.6,30.655,30.655,0,0,1-3.6,4.494,31.859,31.859,0,0,1-3.58,3.186,1.167,1.167,0,0,1-.7.236A1.156,1.156,0,0,1,8570.774-11588.631Zm-11.7-9.079-6.83-6.829a3.768,3.768,0,0,1,0-5.32,3.728,3.728,0,0,1,2.66-1.1,3.73,3.73,0,0,1,2.66,1.1l4.17,4.17,11.6-11.6a3.741,3.741,0,0,1,2.66-1.1,3.734,3.734,0,0,1,2.66,1.1,3.763,3.763,0,0,1,0,5.32l-14.262,14.261a3.725,3.725,0,0,1-2.66,1.1A3.728,3.728,0,0,1,8559.076-11597.71Zm-5.194-10.515a1.449,1.449,0,0,0,0,2.05l6.83,6.83a1.439,1.439,0,0,0,1.024.424,1.436,1.436,0,0,0,1.025-.424l14.261-14.262a1.445,1.445,0,0,0,0-2.047,1.438,1.438,0,0,0-1.024-.426,1.431,1.431,0,0,0-1.022.426l-12.422,12.419a1.159,1.159,0,0,1-.817.339,1.159,1.159,0,0,1-.817-.339l-4.99-4.99a1.429,1.429,0,0,0-1.022-.423A1.435,1.435,0,0,0,8553.882-11608.225Zm-7.3-8.267v-4.468a1.156,1.156,0,0,1,.809-1.1c2.117-.663,4.239-1.413,6.307-2.228a1.158,1.158,0,0,1,1.5.653,1.154,1.154,0,0,1-.653,1.5c-1.854.73-3.75,1.411-5.65,2.026v3.621a1.156,1.156,0,0,1-1.156,1.156A1.155,1.155,0,0,1,8546.582-11616.491Zm9.752-7.621a1.154,1.154,0,0,1,.593-1.521l.021-.009a1.156,1.156,0,0,1,1.524.6,1.153,1.153,0,0,1-.59,1.521l-.023.009a1.13,1.13,0,0,1-.464.1A1.156,1.156,0,0,1,8556.334-11624.112Z" transform="translate(-8542 11635)" fill="url(#linear-gradient)"/>
</svg>
