<svg xmlns="http://www.w3.org/2000/svg" xmlns:xlink="http://www.w3.org/1999/xlink" width="55.442" height="55.154" viewBox="0 0 55.442 55.154">
  <defs>
    <linearGradient id="linear-gradient" y1="0.678" x2="1" y2="0.658" gradientUnits="objectBoundingBox">
      <stop offset="0" stop-color="#03eaae"/>
      <stop offset="1" stop-color="#575bf8"/>
    </linearGradient>
  </defs>
  <path id="Union_108" data-name="Union 108" d="M-15033.819-11581.148a13.242,13.242,0,0,0-1.35-.764l-6.361-3.114a18.064,18.064,0,0,0-4.86-1.572l-3.7-.638v1.949a3.384,3.384,0,0,1-3.371,3.375h-3.163a3.385,3.385,0,0,1-3.372-3.375v-14.767a3.384,3.384,0,0,1,3.372-3.371h3.163a3.385,3.385,0,0,1,3.369,3.243h13a3.664,3.664,0,0,1,2.6,1.08l6.111,6.112a3.274,3.274,0,0,1,.9,1.712l19.514-4.913.053-.012a2.987,2.987,0,0,1,2.344.707,2.964,2.964,0,0,1,1,2.226,2.939,2.939,0,0,1-1.368,2.5c-.011.007-.026.019-.041.026l-19.008,9.638a8.239,8.239,0,0,1-4.4,1.266A8.208,8.208,0,0,1-15033.819-11581.148Zm-16.2-7.09,3.794.653a19.035,19.035,0,0,1,5.129,1.659l6.365,3.114a14.776,14.776,0,0,1,1.447.82,7.233,7.233,0,0,0,7.786.022.358.358,0,0,1,.045-.026l19-9.634a1.954,1.954,0,0,0,.889-1.641,1.973,1.973,0,0,0-.669-1.474,1.938,1.938,0,0,0-1.52-.469l-19.7,4.956a3.122,3.122,0,0,1-.854,1.786,3.158,3.158,0,0,1-2.3.979,3.17,3.17,0,0,1-2.256-.937l-5.507-5.511a.5.5,0,0,1,0-.707.5.5,0,0,1,.706,0l5.507,5.511a2.188,2.188,0,0,0,1.55.643,2.182,2.182,0,0,0,1.58-.669,2.238,2.238,0,0,0-.068-3.122l-6.115-6.111a2.663,2.663,0,0,0-1.894-.786h-13v10.935A.454.454,0,0,1-15050.015-11588.238Zm-8.984-11.815v14.767a2.375,2.375,0,0,0,2.37,2.374h3.163a2.375,2.375,0,0,0,2.37-2.374v-13.894h-.62a.85.85,0,0,0-.847.847v2.7a.5.5,0,0,1-.5.5.505.505,0,0,1-.5-.5v-2.7a1.853,1.853,0,0,1,1.849-1.848h.616a2.371,2.371,0,0,0-2.366-2.242h-3.163A2.372,2.372,0,0,0-15059-11600.054Zm1.958,12.828a2,2,0,0,1,2-2,2,2,0,0,1,1.992,2,1.992,1.992,0,0,1-1.992,2A1.993,1.993,0,0,1-15057.041-11587.226Zm1,0a1,1,0,0,0,.994.994,1,1,0,0,0,.994-.994,1,1,0,0,0-.994-.994A1,1,0,0,0-15056.04-11587.226Zm32.943-12.877-3.927-.7a.859.859,0,0,1-.7-1l.854-4.83a11.9,11.9,0,0,1-2.219-1.281l-3.761,3.151a.858.858,0,0,1-1.213-.105l-2.562-3.054a.863.863,0,0,1,.105-1.213l3.757-3.152a11.873,11.873,0,0,1-.876-2.411h-4.9a.864.864,0,0,1-.865-.862v-3.983a.867.867,0,0,1,.865-.865h4.9a11.911,11.911,0,0,1,.876-2.408l-3.757-3.152a.863.863,0,0,1-.105-1.213l2.563-3.054a.858.858,0,0,1,1.213-.106l3.761,3.152a12.139,12.139,0,0,1,2.219-1.285l-.854-4.826a.865.865,0,0,1,.7-1l3.927-.691a.978.978,0,0,1,.151-.011.86.86,0,0,1,.846.71l.854,4.834a11.9,11.9,0,0,1,2.525.442l2.448-4.248a.864.864,0,0,1,1.18-.313l3.451,1.991a.867.867,0,0,1,.317,1.18l-2.453,4.248a12.184,12.184,0,0,1,1.647,1.962l4.607-1.679a.863.863,0,0,1,1.107.519l1.36,3.741a.86.86,0,0,1-.514,1.107l-4.611,1.678a11.775,11.775,0,0,1,.072,1.281,11.779,11.779,0,0,1-.072,1.282l4.611,1.678a.857.857,0,0,1,.514,1.1l-1.36,3.745a.863.863,0,0,1-1.107.519l-4.607-1.679a12.184,12.184,0,0,1-1.647,1.962l2.453,4.248a.867.867,0,0,1-.317,1.18l-3.451,1.991a.862.862,0,0,1-1.18-.317l-2.448-4.244a11.9,11.9,0,0,1-2.525.442l-.854,4.83a.862.862,0,0,1-.851.715A.926.926,0,0,1-15023.1-11600.1Zm-5.4-8.614a10.568,10.568,0,0,0,2.033,1.176,1,1,0,0,1,.578,1.089l-.827,4.694,3.654.646.828-4.7a1,1,0,0,1,.918-.824,11.079,11.079,0,0,0,2.313-.4,1,1,0,0,1,1.146.461l2.381,4.127,3.213-1.855-2.381-4.131a1,1,0,0,1,.17-1.221,10.976,10.976,0,0,0,1.512-1.8,1,1,0,0,1,1.172-.382l4.482,1.633,1.266-3.489-4.479-1.633a1,1,0,0,1-.654-1.043,11.073,11.073,0,0,0,.064-1.176,11.069,11.069,0,0,0-.064-1.175,1,1,0,0,1,.654-1.047l4.479-1.629-1.266-3.489-4.482,1.633a1,1,0,0,1-1.172-.382,10.976,10.976,0,0,0-1.512-1.8,1,1,0,0,1-.17-1.221l2.385-4.131-3.217-1.855-2.381,4.127a1,1,0,0,1-1.146.461,11.079,11.079,0,0,0-2.313-.4,1,1,0,0,1-.918-.824l-.828-4.7-3.654.646.827,4.694a1,1,0,0,1-.578,1.089,10.568,10.568,0,0,0-2.033,1.176,1.006,1.006,0,0,1-1.232-.042l-3.654-3.065-2.385,2.843,3.65,3.064a1,1,0,0,1,.254,1.206,11.123,11.123,0,0,0-.8,2.207,1,1,0,0,1-.971.76h-4.767v3.712h4.767a1,1,0,0,1,.971.76,11.123,11.123,0,0,0,.8,2.207,1,1,0,0,1-.254,1.206l-3.65,3.064,2.385,2.843,3.654-3.065a1,1,0,0,1,.645-.234A1,1,0,0,1-15028.5-11608.717Zm2.74-3.851-4.036-4.037a.5.5,0,0,1,0-.707.5.5,0,0,1,.706,0l4.037,4.037a.2.2,0,0,0,.14.057.207.207,0,0,0,.144-.057l9.453-9.453a.5.5,0,0,1,.706,0,.5.5,0,0,1,0,.707l-9.452,9.453a1.2,1.2,0,0,1-.851.352A1.194,1.194,0,0,1-15025.758-11612.567Z" transform="translate(15060.001 11634.999)" fill="url(#linear-gradient)"/>
</svg>
