<svg xmlns="http://www.w3.org/2000/svg" xmlns:xlink="http://www.w3.org/1999/xlink" width="53.169" height="55.002" viewBox="0 0 53.169 55.002">
  <defs>
    <linearGradient id="linear-gradient" y1="0.452" x2="1.012" y2="0.435" gradientUnits="objectBoundingBox">
      <stop offset="0" stop-color="#03eaae"/>
      <stop offset="1" stop-color="#575bf8"/>
    </linearGradient>
  </defs>
  <path id="Union_32" data-name="Union 32" d="M8590.281-11580.838l-6.961-6.964a11.894,11.894,0,0,1-13.178-1.366h-6.378l-2.2,7.335h12.2l-.747-2.488,1.755-.525.905,3.014h2.067v1.833h-20.166v-1.833h2.067l2.2-7.335h-16.186a3.67,3.67,0,0,1-3.668-3.665v-30.251a3.675,3.675,0,0,1,2.444-3.457l.613,1.729a1.834,1.834,0,0,0-1.224,1.729v25.667h22.034c-.023-.3-.035-.607-.035-.917a11.847,11.847,0,0,1,2.237-6.953l1.489,1.072a10.076,10.076,0,0,0,1.868,13.727,10.073,10.073,0,0,0,13.806-1.115,10.071,10.071,0,0,0-.358-13.847,10.072,10.072,0,0,0-13.847-.4l-1.221-1.366a11.915,11.915,0,0,1,12.81-1.994,11.915,11.915,0,0,1,7.052,10.877c0,.31-.012.613-.035.917h1.866v-25.667a1.835,1.835,0,0,0-1.221-1.729l.61-1.729a3.675,3.675,0,0,1,2.444,3.457v30.251a3.666,3.666,0,0,1-1.221,2.73l-1.224-1.364a1.839,1.839,0,0,0,.61-1.366v-2.751h-2.152a11.944,11.944,0,0,1-1.755,3.963l6.736,6.736a2.859,2.859,0,0,1,0,4.047,2.85,2.85,0,0,1-2.023.839A2.853,2.853,0,0,1,8590.281-11580.838Zm-2.984-5.58,4.281,4.284a1.03,1.03,0,0,0,.727.3,1.029,1.029,0,0,0,.949-.634,1.023,1.023,0,0,0-.222-1.121l-4.281-4.284Zm-2.392-2.392,1.1,1.1,1.451-1.454-1.017-1.017A12.086,12.086,0,0,1,8584.905-11588.81Zm-41.072-4.023a1.839,1.839,0,0,0,1.834,1.834h22.7a11.88,11.88,0,0,1-2.211-4.585h-22.32Zm25.667-5.5a8.249,8.249,0,0,1,8.249-8.249,8.25,8.25,0,0,1,8.252,8.249,8.252,8.252,0,0,1-8.252,8.252A8.262,8.262,0,0,1,8569.5-11598.334Zm1.834,0a6.417,6.417,0,0,0,6.415,6.418,6.417,6.417,0,0,0,6.418-6.418,6.418,6.418,0,0,0-6.418-6.416A6.421,6.421,0,0,0,8571.334-11598.334Zm1.833,0a4.587,4.587,0,0,1,4.582-4.582v1.831a2.756,2.756,0,0,0-2.751,2.751Zm-26.583-.917v-32.082a3.67,3.67,0,0,1,3.667-3.668h1.831v1.834h-1.831a1.835,1.835,0,0,0-1.834,1.834v32.082Zm4.581-2.748v-1.834H8564v1.834Zm10.086-4.584v-1.834h3.667v1.834Zm-10.086,0v-1.834h3.668v1.834Zm35.75-.917v-23.833a1.835,1.835,0,0,0-1.831-1.834h-31.168V-11635h31.168a3.669,3.669,0,0,1,3.664,3.668v23.833Zm-7.175-4.582h-4.9a2.749,2.749,0,0,1-2.591,1.831,2.753,2.753,0,0,1-2.593-1.831h-3.982a2.753,2.753,0,0,1-2.593,1.831,2.75,2.75,0,0,1-2.591-1.831h-4.9a2.751,2.751,0,0,1-3.058,1.793,2.754,2.754,0,0,1-2.286-2.712,2.753,2.753,0,0,1,2.286-2.71,2.751,2.751,0,0,1,3.058,1.793h4.9a2.75,2.75,0,0,1,2.591-1.831,2.753,2.753,0,0,1,2.593,1.831h3.982a2.753,2.753,0,0,1,2.593-1.831,2.749,2.749,0,0,1,2.591,1.831h4.9a2.752,2.752,0,0,1,3.058-1.793,2.753,2.753,0,0,1,2.286,2.71,2.754,2.754,0,0,1-2.286,2.712,2.794,2.794,0,0,1-.465.04A2.752,2.752,0,0,1,8579.74-11612.082Zm1.676-.919a.919.919,0,0,0,.917.919.917.917,0,0,0,.917-.919.916.916,0,0,0-.917-.917A.92.92,0,0,0,8581.416-11613Zm-10.082,0a.916.916,0,0,0,.916.919.918.918,0,0,0,.917-.919.918.918,0,0,0-.917-.917A.919.919,0,0,0,8571.334-11613Zm-9.166,0a.916.916,0,0,0,.914.919.922.922,0,0,0,.919-.919.918.918,0,0,0-.919-.917A.915.915,0,0,0,8562.168-11613Zm-10.086,0a.919.919,0,0,0,.917.919.919.919,0,0,0,.917-.919.916.916,0,0,0-.917-.917A.918.918,0,0,0,8552.082-11613Zm19.421-4.965-3.516-4.926a6.573,6.573,0,0,1-1.174-2.94h-16.562v-1.834h16.577a5.5,5.5,0,0,1,5.422-4.584,5.5,5.5,0,0,1,5.423,4.584h7.411v1.834h-7.4a6.546,6.546,0,0,1-1.171,2.94l-3.519,4.926a.917.917,0,0,1-.745.383A.921.921,0,0,1,8571.5-11617.966Zm-2.92-8.783a4.768,4.768,0,0,0,.9,2.792l2.771,3.881,2.771-3.881a4.788,4.788,0,0,0,.9-2.792,3.668,3.668,0,0,0-3.668-3.667A3.666,3.666,0,0,0,8568.583-11626.749Zm11,8.249v-1.834h5.5v1.834Zm-29.332,0v-1.834h6.415v1.834Zm29.332-3.667V-11624h5.5v1.834Zm-29.332,0V-11624h8.249v1.834Zm19.961-4.7c0-.9.97-1.627,2.17-1.627s2.17.728,2.17,1.627-.973,1.626-2.17,1.626S8570.212-11625.963,8570.212-11626.862Zm-12.629-2.637v-1.834h1.834v1.834Zm-3.667,0v-1.834h1.834v1.834Zm-3.665,0v-1.834h1.831v1.834Z" transform="translate(-8541.999 11635.001)" fill="url(#linear-gradient)"/>
</svg>
