<svg xmlns="http://www.w3.org/2000/svg" xmlns:xlink="http://www.w3.org/1999/xlink" width="56.091" height="56" viewBox="0 0 56.091 56">
  <defs>
    <linearGradient id="linear-gradient" y1="0.595" x2="1.012" y2="0.59" gradientUnits="objectBoundingBox">
      <stop offset="0" stop-color="#03eaae"/>
      <stop offset="1" stop-color="#575bf8"/>
    </linearGradient>
  </defs>
  <path id="Union_111" data-name="Union 111" d="M30.162,55V52.28a10.566,10.566,0,0,1,3.689-8.005,8.8,8.8,0,0,1-3.457-3.681l-.318-.632.148-.37a23.507,23.507,0,0,0,1.711-8.8v-.628A10.639,10.639,0,0,1,36.71,21.29H32.823A4.432,4.432,0,0,1,28.464,17.6a2.635,2.635,0,0,1-1.159-4.295,2.624,2.624,0,0,1,0-3.549,2.651,2.651,0,0,1,1.97-4.436h2.661V3.08A3.08,3.08,0,0,1,37.772,1.7l.279.56a3.424,3.424,0,0,0,2.238,1.8,5.2,5.2,0,0,1,3.07,2.163l.585.876H55V8.871H44.356v8.87H55v1.775H43.719l-.087.054a10.658,10.658,0,0,1,9.595,10.592v.628a23.389,23.389,0,0,0,1.679,8.723l.147.371-.284.71a8.81,8.81,0,0,1-3.459,3.681A10.561,10.561,0,0,1,55,52.28V55Zm20.144-7.357a2.131,2.131,0,0,0-.628,1.514v4.068h3.549V52.28A8.8,8.8,0,0,0,47.4,44.019l-.662,1.654a3.532,3.532,0,0,1-3.295,2.23h-1.72a3.532,3.532,0,0,1-3.295-2.23l-.66-1.654a8.8,8.8,0,0,0-5.829,8.261v.945h3.548V49.157a2.132,2.132,0,0,0-.626-1.514l1.254-1.254a3.89,3.89,0,0,1,1.147,2.768v4.068H47.9V49.157a3.89,3.89,0,0,1,1.147-2.768Zm-9.252-5.935a2.68,2.68,0,0,1-1.578,1.811l.6,1.5a1.764,1.764,0,0,0,1.647,1.114h1.72a1.767,1.767,0,0,0,1.648-1.114l.6-1.5a2.67,2.67,0,0,1-1.578-1.811l-.256-1.022a6.784,6.784,0,0,1-2.546,0Zm1.791-15.414,4.694.939a2.666,2.666,0,0,1,2.139,2.608V33.71a7.1,7.1,0,0,1-4.13,6.44l.282,1.128a.89.89,0,0,0,.687.654,10.427,10.427,0,0,1,3.148,1.188,7.034,7.034,0,0,0,3.479-3.245,25.244,25.244,0,0,1-1.691-9.085v-.628a8.871,8.871,0,1,0-17.743,0v.628a25.106,25.106,0,0,1-1.691,9.086,7.03,7.03,0,0,0,3.48,3.242,10.47,10.47,0,0,1,3.146-1.186.892.892,0,0,0,.687-.656l.282-1.128a7.1,7.1,0,0,1-4.13-6.438V29.484a2.644,2.644,0,0,1,1.472-2.38l2.2-1.1a5.7,5.7,0,0,1-.966-1.77l1.683-.562A3.955,3.955,0,0,0,42.844,26.294Zm-5.094,2.4a.883.883,0,0,0-.491.794V33.71a5.322,5.322,0,0,0,10.644,0V29.841a.891.891,0,0,0-.712-.87L42.5,28.031a5.693,5.693,0,0,1-1.911-.76Zm-4.927-9.174h4.786a9.63,9.63,0,0,0,4.972-1.382V8.252l-.7-1.048a3.43,3.43,0,0,0-2.025-1.428,5.2,5.2,0,0,1-3.395-2.723l-.279-.559a1.307,1.307,0,0,0-2.474.585V7.1H29.275a.887.887,0,1,0,0,1.775h2.661v1.775H29.275a.887.887,0,1,0,0,1.773h2.661v1.775H29.275a.887.887,0,1,0,0,1.775h2.661v1.773H30.325A2.658,2.658,0,0,0,32.823,19.516ZM19.167,55a11.417,11.417,0,0,1-6.11-1.775H0V51.452H12.419V42.581H0V34.537A10.581,10.581,0,0,1,8.483,24.188a.888.888,0,0,0,.687-.654L9.452,22.4a7.1,7.1,0,0,1-4.13-6.437H4.436a2.655,2.655,0,0,1-.332-5.29l-.269-.806A5.593,5.593,0,0,1,7.439,2.782,6.845,6.845,0,0,1,12.957,0h.576a7.755,7.755,0,0,1,7.359,10.209l-.156.469a2.655,2.655,0,0,1-.332,5.29h-.888a7.1,7.1,0,0,1-4.128,6.438l.281,1.129a.892.892,0,0,0,.687.653A10.583,10.583,0,0,1,24.84,34.537v4.495H27.5a2.65,2.65,0,0,1,1.969,4.436,2.62,2.62,0,0,1,0,3.549,2.634,2.634,0,0,1-1.157,4.295A4.434,4.434,0,0,1,23.952,55Zm1.425-18.794-.279.559a5.2,5.2,0,0,1-3.4,2.723,3.43,3.43,0,0,0-2.025,1.426l-.7,1.048v9.881a9.638,9.638,0,0,0,4.972,1.382h4.786a2.656,2.656,0,0,0,2.5-1.773H24.84V49.678H27.5a.887.887,0,0,0,0-1.775H24.84V46.129H27.5a.887.887,0,0,0,0-1.775H24.84V42.581H27.5a.887.887,0,0,0,0-1.775H23.065V36.79a1.305,1.305,0,0,0-2.473-.584ZM7.1,31.416v9.39h5.735l.584-.876a5.2,5.2,0,0,1,3.07-2.163,3.437,3.437,0,0,0,1.257-.615V31.416a3.888,3.888,0,0,1,1.147-2.768L20.145,29.9a2.124,2.124,0,0,0-.629,1.514v3.262A3.053,3.053,0,0,1,23.039,34a8.816,8.816,0,0,0-6-7.788l-1.482,4.447-3.136-2.089L9.285,30.657,7.8,26.208a8.8,8.8,0,0,0-6.026,8.329v6.269H5.322v-9.39A2.127,2.127,0,0,0,4.7,29.9L5.95,28.648A3.888,3.888,0,0,1,7.1,31.416Zm6.232-4.377,1.278.851.732-2.2q-.064-.033-.123-.071ZM9.5,25.7l.732,2.2,1.278-.851L9.624,25.625C9.583,25.648,9.542,25.673,9.5,25.7Zm1.391-1.732a2.841,2.841,0,0,1-.1.316L12.419,25.5l1.632-1.223a2.913,2.913,0,0,1-.1-.315l-.256-1.023a6.7,6.7,0,0,1-2.546,0ZM7.453,9.936a.888.888,0,0,0-.356.709v5.324a5.323,5.323,0,0,0,10.646,0V10.611a.883.883,0,0,0-.334-.692L13.639,6.9l1.109-1.386,3.77,3.015a2.67,2.67,0,0,1,.738.926,5.945,5.945,0,0,0-5.722-7.685h-.576A5.079,5.079,0,0,0,8.723,4.04l-.191.285L8.2,4.409a3.813,3.813,0,0,0-2.682,4.9l.068.2a2.663,2.663,0,0,1,.8-1L9.758,5.988l4.081,3.06-1.064,1.42L9.758,8.205Zm12.063,4.258H20.4a.887.887,0,0,0,0-1.775h-.888ZM3.549,13.306a.888.888,0,0,0,.887.888h.887V12.419H4.436A.888.888,0,0,0,3.549,13.306ZM39.218,35.181l-.093-.187,1.588-.794.093.187a1.984,1.984,0,0,0,3.549,0l.093-.188,1.586.794-.093.188a3.759,3.759,0,0,1-6.723,0Zm5.136-4.134a.887.887,0,1,1,.887.888A.887.887,0,0,1,44.354,31.047Zm-5.321,0a.887.887,0,1,1,.888.888A.887.887,0,0,1,39.033,31.047ZM9.354,17.122,8.62,14.194h7.6l-.734,2.929a3.159,3.159,0,0,1-6.129,0Zm1.72-.431a1.385,1.385,0,0,0,2.688,0l.182-.723H10.893ZM14.2,11.531a.887.887,0,1,1,.887.888A.887.887,0,0,1,14.2,11.531Zm-5.324,0a.887.887,0,1,1,.887.888A.887.887,0,0,1,8.871,11.531Z" transform="translate(0.5 0.5)" stroke="rgba(0,0,0,0)" stroke-width="1" fill="url(#linear-gradient)"/>
</svg>
