<svg xmlns="http://www.w3.org/2000/svg" xmlns:xlink="http://www.w3.org/1999/xlink" width="64" height="55" viewBox="0 0 64 55">
  <defs>
    <linearGradient id="linear-gradient" y1="0.5" x2="1" y2="0.5" gradientUnits="objectBoundingBox">
      <stop offset="0" stop-color="#03eaae"/>
      <stop offset="1" stop-color="#575bf8"/>
    </linearGradient>
  </defs>
  <path id="Union_115" data-name="Union 115" d="M0,33.25V14.5a1.564,1.564,0,0,1,1.563-1.563h.25A10.324,10.324,0,0,0,12.125,2.625V1.563A1.564,1.564,0,0,1,13.688,0H29.813a1.564,1.564,0,0,1,1.563,1.563V2.917A10.325,10.325,0,0,0,41.3,13.222a5.319,5.319,0,0,0,.452-2.153V8.125a4.375,4.375,0,0,1,8.75,0l.007,11.125h7.425a3.817,3.817,0,0,1,3.815,3.615,3.726,3.726,0,0,1-.567,2.126A3.756,3.756,0,0,1,64,28.761a3.8,3.8,0,0,1-2.827,3.483,3.722,3.722,0,0,1,.577,2.142A3.816,3.816,0,0,1,57.932,38h-.446a3.069,3.069,0,0,1-.631,3.411,3.227,3.227,0,0,1-2.288.964H41.5A21.753,21.753,0,0,1,0,33.25ZM14,2.625A12.2,12.2,0,0,1,1.875,14.812V33.25a19.878,19.878,0,0,0,37.537,9.125H35.606a7.2,7.2,0,0,1-3.544-.935l-1-.567A2.81,2.81,0,0,1,28.812,42h-5.5a2.557,2.557,0,0,1-.687-.093v8.406a.937.937,0,0,1-.937.937A17.958,17.958,0,0,1,3.75,33.313V16.875a.938.938,0,0,1,.938-.938A10.929,10.929,0,0,0,15.6,5.021v-.4a.938.938,0,0,1,.937-.938h5.146a.938.938,0,0,1,.937.938v9.187a.938.938,0,0,1-1.875,0V5.562H17.468A12.81,12.81,0,0,1,5.625,17.778V33.313A16.083,16.083,0,0,0,20.75,49.348V40.125H16.312a2.44,2.44,0,0,1-2.437-2.437V21.563a2.44,2.44,0,0,1,2.437-2.437h4.6a2.817,2.817,0,0,1,2.652-1.876h5.25a2.817,2.817,0,0,1,2.693,2h1.153a2.808,2.808,0,0,0,1.51-.439l5.122-3.259a5.374,5.374,0,0,0,.733-.56A12.205,12.205,0,0,1,29.5,2.917V1.875H14ZM32.987,39.809a5.324,5.324,0,0,0,2.62.691H54.567a1.34,1.34,0,0,0,.95-.4,1.208,1.208,0,0,0,.358-.872A1.256,1.256,0,0,0,54.625,38l-.063,0L54.5,38H52.875a.938.938,0,1,1,0-1.875H54.5l.063,0,.063,0h3.307a1.926,1.926,0,0,0,1.941-1.805A1.875,1.875,0,0,0,58,32.375H52.875a.938.938,0,1,1,0-1.875h7.308a1.926,1.926,0,0,0,1.941-1.806A1.874,1.874,0,0,0,60.25,26.75H52.875a.937.937,0,1,1,0-1.875H58a1.875,1.875,0,0,0,1.874-1.944,1.926,1.926,0,0,0-1.941-1.806H50.195a1.564,1.564,0,0,1-1.563-1.562L48.625,8.125a2.5,2.5,0,0,0-5,0v2.944A7.154,7.154,0,0,1,40.3,17.133l-5.122,3.259a4.676,4.676,0,0,1-2.517.733H31.624V32.541a.937.937,0,0,1-1.875,0V20.062a.939.939,0,0,0-.938-.938h-5.25a.939.939,0,0,0-.938.938V38.52c0,.014,0,.029,0,.043v.912a.689.689,0,0,0,.687.651h5.5a.939.939,0,0,0,.938-.938V36.916a.937.937,0,0,1,1.875,0v2.12ZM15.75,21.563V37.688a.563.563,0,0,0,.562.562H20.75V21H16.312A.563.563,0,0,0,15.75,21.563Z" fill="url(#linear-gradient)"/>
</svg>
