<svg xmlns="http://www.w3.org/2000/svg" xmlns:xlink="http://www.w3.org/1999/xlink" width="54.133" height="55" viewBox="0 0 54.133 55">
  <defs>
    <linearGradient id="linear-gradient" y1="0.443" x2="1" y2="0.425" gradientUnits="objectBoundingBox">
      <stop offset="0" stop-color="#03eaae"/>
      <stop offset="1" stop-color="#575bf8"/>
    </linearGradient>
  </defs>
  <path id="Union_104" data-name="Union 104" d="M-15034.144-11580.977l-2.1-2.105-.637.633a2.918,2.918,0,0,1-2.088.869,2.952,2.952,0,0,1-2.1-.869,2.931,2.931,0,0,1-.793-1.453,2.846,2.846,0,0,1-1.088.209,2.925,2.925,0,0,1-2.088-.867,2.914,2.914,0,0,1-.861-2.176h-.09a2.944,2.944,0,0,1-2.1-.865,2.942,2.942,0,0,1-.863-2.09v-.092a.4.4,0,0,1-.084.006,2.944,2.944,0,0,1-2.094-.867,2.971,2.971,0,0,1,0-4.184l4.408-4.4a5.024,5.024,0,0,0-.457-.537l-4.551-4.551-.227.227a1.38,1.38,0,0,1-.982.408,1.412,1.412,0,0,1-.99-.408l-5.672-5.672a1.4,1.4,0,0,1-.41-.99,1.381,1.381,0,0,1,.41-.984l10.3-10.3a1.4,1.4,0,0,1,1.973,0l5.672,5.674a1.389,1.389,0,0,1,.006,1.973l-.33.324,4.295,4.293,1.313-1.312a5.878,5.878,0,0,1,6.322-1.3,4.269,4.269,0,0,0,4.586-.945l1.729-1.734-.508-.5a1.4,1.4,0,0,1,0-1.973l5.68-5.682a1.391,1.391,0,0,1,1.967,0l5.021,5.021a.8.8,0,0,1,0,1.137.8.8,0,0,1-1.137,0l-4.867-4.861-5.369,5.367,10,10,5.367-5.369-2.473-2.473a.8.8,0,0,1,0-1.143.794.794,0,0,1,1.135,0l2.633,2.627a1.4,1.4,0,0,1,.408.988,1.38,1.38,0,0,1-.408.984l-5.68,5.68a1.383,1.383,0,0,1-.982.408,1.4,1.4,0,0,1-.99-.408l-.508-.508-6.734,6.742,2.5,2.5a3.405,3.405,0,0,1,.123,4.691,3.321,3.321,0,0,1-2.387,1.061c-.111,0-.215,0-.318-.006a3.314,3.314,0,0,1-.971,2.621,3.317,3.317,0,0,1-2.625.971,3.331,3.331,0,0,1-.967,2.619,3.33,3.33,0,0,1-2.625.973c.006.084.012.17.012.256a3.322,3.322,0,0,1-.982,2.369,3.319,3.319,0,0,1-2.363.977A3.347,3.347,0,0,1-15034.144-11580.977Zm-6.271-17.221a2.932,2.932,0,0,1,2.1.9,2.961,2.961,0,0,1,.6,3.211,2.9,2.9,0,0,1,1.453.818,2.985,2.985,0,0,1,.49,3.445,2.933,2.933,0,0,1,1.355.8,2.966,2.966,0,0,1-.037,4.146l-.648.654,2.1,2.1a1.719,1.719,0,0,0,1.229.508,1.718,1.718,0,0,0,1.227-.508,1.7,1.7,0,0,0,.508-1.227,1.719,1.719,0,0,0-.508-1.229.794.794,0,0,1,0-1.135.8.8,0,0,1,1.137,0,1.734,1.734,0,0,0,2.453,0,1.733,1.733,0,0,0,0-2.455.826.826,0,0,1-.232-.568.819.819,0,0,1,.232-.568.806.806,0,0,1,1.143,0,1.736,1.736,0,0,0,2.449,0,1.736,1.736,0,0,0,0-2.455.828.828,0,0,1-.232-.574.832.832,0,0,1,.232-.568.817.817,0,0,1,1.143,0,1.729,1.729,0,0,0,1.258.508,1.709,1.709,0,0,0,1.24-.549,1.79,1.79,0,0,0-.086-2.457l-10.383-10.223a1.949,1.949,0,0,0-2.424.258l-2.34,2.338a3.339,3.339,0,0,1-2.369.979,3.329,3.329,0,0,1-2.363-.979,3.329,3.329,0,0,1-.982-2.369,3.309,3.309,0,0,1,.982-2.363l.873-.879-4.287-4.293-1.189,1.189a.806.806,0,0,1-1.137,0,.8.8,0,0,1,0-1.141l2.5-2.5-5.369-5.375-10,10,5.369,5.369,4.836-4.84a.817.817,0,0,1,1.143,0,.813.813,0,0,1,0,1.143l-3.627,3.629,4.543,4.543c.2.2.373.4.543.609a3.021,3.021,0,0,1,1.516-.377,2.92,2.92,0,0,1,2.113.965,2.864,2.864,0,0,1,.744,1.594,3.151,3.151,0,0,1,.686-.078Zm2.918,10.283-2.424,2.426a1.347,1.347,0,0,0,0,1.9,1.343,1.343,0,0,0,1.9,0l2.43-2.424a1.365,1.365,0,0,0,.014-1.895,1.368,1.368,0,0,0-.953-.408A1.36,1.36,0,0,0-15037.5-11587.914Zm-1.842-4.244-4.559,4.557a1.361,1.361,0,0,0-.389.953,1.36,1.36,0,0,0,.389.951,1.336,1.336,0,0,0,.953.4,1.329,1.329,0,0,0,.953-.4l.928-.934,3.629-3.623a1.349,1.349,0,0,0,.012-1.887,1.317,1.317,0,0,0-.953-.408h-.012A1.353,1.353,0,0,0-15039.339-11592.158Zm-2.047-4.031-5.551,5.545a1.33,1.33,0,0,0-.393.953,1.33,1.33,0,0,0,.393.953,1.339,1.339,0,0,0,.953.391,1.345,1.345,0,0,0,.951-.391l5.547-5.551a1.349,1.349,0,0,0,.016-1.887,1.34,1.34,0,0,0-.957-.41h-.006A1.326,1.326,0,0,0-15041.386-11596.189Zm-3.609-2.479-4.982,4.982a1.347,1.347,0,0,0,0,1.9,1.34,1.34,0,0,0,1.9,0l4.939-4.939a1.392,1.392,0,0,0,.092-1.9,1.352,1.352,0,0,0-.965-.441h-.031A1.328,1.328,0,0,0-15045-11598.668Zm22.443-8.709a.808.808,0,0,1-.555,1l-4.184,1.189c-.006.006-.02.006-.031.012l5.008,5,6.742-6.742-7.01-7.01-1.736,1.727a5.848,5.848,0,0,1-6.312,1.309,4.257,4.257,0,0,0-4.588.945l-3.334,3.33a1.733,1.733,0,0,0,0,2.455,1.716,1.716,0,0,0,1.227.506,1.717,1.717,0,0,0,1.229-.506l2.338-2.34a3.574,3.574,0,0,1,4.441-.471,1.939,1.939,0,0,0,1.588.238l4.182-1.2a.721.721,0,0,1,.221-.033A.808.808,0,0,1-15022.552-11607.377Zm-19.77-18.236a9.4,9.4,0,0,1,9.387-9.387,9.366,9.366,0,0,1,9.105,7.109.8.8,0,0,1-.586.977.806.806,0,0,1-.977-.586,7.752,7.752,0,0,0-7.543-5.889,7.784,7.784,0,0,0-7.773,7.775,7.782,7.782,0,0,0,7.773,7.773,7.79,7.79,0,0,0,7.627-6.252.809.809,0,0,1,.947-.637.813.813,0,0,1,.637.947,9.416,9.416,0,0,1-9.211,7.555A9.4,9.4,0,0,1-15042.321-11625.613Zm8.24,3.141-3.549-3.549a.8.8,0,0,1,0-1.143.8.8,0,0,1,1.135,0l2.98,2.98,4.141-4.141a.806.806,0,0,1,1.137,0,.8.8,0,0,1,0,1.143l-4.709,4.709a.815.815,0,0,1-.568.23A.825.825,0,0,1-15034.081-11622.473Z" transform="translate(15060.001 11635)" fill="url(#linear-gradient)"/>
</svg>
